<mxfile host="app.diagrams.net" agent="Mozilla/5.0 (Windows NT 10.0; Win64; x64) AppleWebKit/537.36 (KHTML, like Gecko) Chrome/128.0.0.0 Safari/537.36" version="24.7.7">
  <diagram name="第 1 页" id="9KRngm3VW8grfs67VpiL">
    <mxGraphModel dx="1434" dy="738" grid="1" gridSize="10" guides="1" tooltips="1" connect="1" arrows="1" fold="1" page="1" pageScale="1" pageWidth="827" pageHeight="1169" math="0" shadow="0">
      <root>
        <mxCell id="0" />
        <mxCell id="1" parent="0" />
        <mxCell id="sx4IxrX97aURAVVNlW1D-9" style="edgeStyle=orthogonalEdgeStyle;rounded=0;orthogonalLoop=1;jettySize=auto;html=1;exitX=1;exitY=0.5;exitDx=0;exitDy=0;entryX=0;entryY=0.5;entryDx=0;entryDy=0;" edge="1" parent="1" source="sx4IxrX97aURAVVNlW1D-1" target="sx4IxrX97aURAVVNlW1D-5">
          <mxGeometry relative="1" as="geometry" />
        </mxCell>
        <mxCell id="sx4IxrX97aURAVVNlW1D-10" style="edgeStyle=orthogonalEdgeStyle;rounded=0;orthogonalLoop=1;jettySize=auto;html=1;exitX=1;exitY=0.5;exitDx=0;exitDy=0;entryX=0;entryY=0.5;entryDx=0;entryDy=0;" edge="1" parent="1" source="sx4IxrX97aURAVVNlW1D-1" target="sx4IxrX97aURAVVNlW1D-2">
          <mxGeometry relative="1" as="geometry" />
        </mxCell>
        <mxCell id="sx4IxrX97aURAVVNlW1D-11" style="edgeStyle=orthogonalEdgeStyle;rounded=0;orthogonalLoop=1;jettySize=auto;html=1;exitX=1;exitY=0.5;exitDx=0;exitDy=0;entryX=0;entryY=0.5;entryDx=0;entryDy=0;" edge="1" parent="1" source="sx4IxrX97aURAVVNlW1D-1" target="sx4IxrX97aURAVVNlW1D-3">
          <mxGeometry relative="1" as="geometry" />
        </mxCell>
        <mxCell id="sx4IxrX97aURAVVNlW1D-12" style="edgeStyle=orthogonalEdgeStyle;rounded=0;orthogonalLoop=1;jettySize=auto;html=1;exitX=1;exitY=0.5;exitDx=0;exitDy=0;entryX=0;entryY=0.5;entryDx=0;entryDy=0;" edge="1" parent="1" source="sx4IxrX97aURAVVNlW1D-1" target="sx4IxrX97aURAVVNlW1D-4">
          <mxGeometry relative="1" as="geometry" />
        </mxCell>
        <mxCell id="sx4IxrX97aURAVVNlW1D-13" style="edgeStyle=orthogonalEdgeStyle;rounded=0;orthogonalLoop=1;jettySize=auto;html=1;exitX=1;exitY=0.5;exitDx=0;exitDy=0;entryX=0;entryY=0.5;entryDx=0;entryDy=0;" edge="1" parent="1" source="sx4IxrX97aURAVVNlW1D-1" target="sx4IxrX97aURAVVNlW1D-6">
          <mxGeometry relative="1" as="geometry" />
        </mxCell>
        <mxCell id="sx4IxrX97aURAVVNlW1D-14" style="edgeStyle=orthogonalEdgeStyle;rounded=0;orthogonalLoop=1;jettySize=auto;html=1;exitX=1;exitY=0.5;exitDx=0;exitDy=0;entryX=0;entryY=0.5;entryDx=0;entryDy=0;" edge="1" parent="1" source="sx4IxrX97aURAVVNlW1D-1" target="sx4IxrX97aURAVVNlW1D-7">
          <mxGeometry relative="1" as="geometry" />
        </mxCell>
        <mxCell id="sx4IxrX97aURAVVNlW1D-15" style="edgeStyle=orthogonalEdgeStyle;rounded=0;orthogonalLoop=1;jettySize=auto;html=1;exitX=1;exitY=0.5;exitDx=0;exitDy=0;entryX=0;entryY=0.5;entryDx=0;entryDy=0;" edge="1" parent="1" source="sx4IxrX97aURAVVNlW1D-1" target="sx4IxrX97aURAVVNlW1D-8">
          <mxGeometry relative="1" as="geometry" />
        </mxCell>
        <mxCell id="sx4IxrX97aURAVVNlW1D-1" value="train_tornado_keras.py&lt;div&gt;&amp;nbsp;scripts/tornado_detection/config/params.json&amp;nbsp;&lt;br&gt;&lt;/div&gt;" style="rounded=0;whiteSpace=wrap;html=1;" vertex="1" parent="1">
          <mxGeometry x="10" y="280" width="250" height="60" as="geometry" />
        </mxCell>
        <mxCell id="sx4IxrX97aURAVVNlW1D-20" style="edgeStyle=orthogonalEdgeStyle;rounded=0;orthogonalLoop=1;jettySize=auto;html=1;exitX=1;exitY=0.5;exitDx=0;exitDy=0;entryX=1;entryY=0.5;entryDx=0;entryDy=0;" edge="1" parent="1" source="sx4IxrX97aURAVVNlW1D-2" target="sx4IxrX97aURAVVNlW1D-3">
          <mxGeometry relative="1" as="geometry" />
        </mxCell>
        <mxCell id="sx4IxrX97aURAVVNlW1D-2" value="&lt;font face=&quot;Consolas, Courier New, monospace&quot; color=&quot;#4ec9b0&quot;&gt;&lt;span style=&quot;font-size: 14px; white-space: pre;&quot;&gt;data/preprocess&lt;/span&gt;&lt;/font&gt;.py&lt;div&gt;get_shape&lt;/div&gt;" style="rounded=0;whiteSpace=wrap;html=1;" vertex="1" parent="1">
          <mxGeometry x="300" y="140" width="170" height="60" as="geometry" />
        </mxCell>
        <mxCell id="sx4IxrX97aURAVVNlW1D-3" value="data/constants.py&lt;div&gt;ALL_VARIABLES&lt;/div&gt;&lt;div&gt;CHANNEL_MIN_MAX&lt;br&gt;&lt;/div&gt;" style="rounded=0;whiteSpace=wrap;html=1;" vertex="1" parent="1">
          <mxGeometry x="300" y="220" width="170" height="60" as="geometry" />
        </mxCell>
        <mxCell id="sx4IxrX97aURAVVNlW1D-4" value="models/keras/losses.py&lt;div&gt;mae_loss&lt;/div&gt;" style="rounded=0;whiteSpace=wrap;html=1;" vertex="1" parent="1">
          <mxGeometry x="300" y="300" width="170" height="60" as="geometry" />
        </mxCell>
        <mxCell id="sx4IxrX97aURAVVNlW1D-19" style="edgeStyle=orthogonalEdgeStyle;rounded=0;orthogonalLoop=1;jettySize=auto;html=1;exitX=1;exitY=0.5;exitDx=0;exitDy=0;entryX=1;entryY=0.5;entryDx=0;entryDy=0;" edge="1" parent="1" source="sx4IxrX97aURAVVNlW1D-5" target="sx4IxrX97aURAVVNlW1D-3">
          <mxGeometry relative="1" as="geometry" />
        </mxCell>
        <mxCell id="sx4IxrX97aURAVVNlW1D-5" value="&lt;div&gt;data/l&lt;span style=&quot;background-color: initial;&quot;&gt;oader.py&lt;/span&gt;&lt;/div&gt;&lt;div&gt;&lt;span style=&quot;background-color: initial;&quot;&gt;get_dataloader&lt;/span&gt;&lt;/div&gt;" style="rounded=0;whiteSpace=wrap;html=1;" vertex="1" parent="1">
          <mxGeometry x="300" y="60" width="170" height="60" as="geometry" />
        </mxCell>
        <mxCell id="sx4IxrX97aURAVVNlW1D-17" style="edgeStyle=orthogonalEdgeStyle;rounded=0;orthogonalLoop=1;jettySize=auto;html=1;exitX=1;exitY=0.5;exitDx=0;exitDy=0;entryX=1;entryY=0.5;entryDx=0;entryDy=0;" edge="1" parent="1" source="sx4IxrX97aURAVVNlW1D-6" target="sx4IxrX97aURAVVNlW1D-3">
          <mxGeometry relative="1" as="geometry" />
        </mxCell>
        <mxCell id="sx4IxrX97aURAVVNlW1D-18" style="edgeStyle=orthogonalEdgeStyle;rounded=0;orthogonalLoop=1;jettySize=auto;html=1;exitX=1;exitY=0.5;exitDx=0;exitDy=0;" edge="1" parent="1" source="sx4IxrX97aURAVVNlW1D-6" target="sx4IxrX97aURAVVNlW1D-16">
          <mxGeometry relative="1" as="geometry" />
        </mxCell>
        <mxCell id="sx4IxrX97aURAVVNlW1D-6" value="models/keras/cnn_baseline.py&lt;div&gt;build_model&lt;/div&gt;" style="rounded=0;whiteSpace=wrap;html=1;" vertex="1" parent="1">
          <mxGeometry x="300" y="380" width="170" height="60" as="geometry" />
        </mxCell>
        <mxCell id="sx4IxrX97aURAVVNlW1D-7" value="metrics/keras.py&lt;div&gt;metrics&lt;/div&gt;" style="rounded=0;whiteSpace=wrap;html=1;" vertex="1" parent="1">
          <mxGeometry x="300" y="460" width="170" height="60" as="geometry" />
        </mxCell>
        <mxCell id="sx4IxrX97aURAVVNlW1D-8" value="utils/general.py&lt;div&gt;make_exp_dir, make_callback_dirs&lt;br&gt;&lt;/div&gt;" style="rounded=0;whiteSpace=wrap;html=1;" vertex="1" parent="1">
          <mxGeometry x="300" y="540" width="170" height="60" as="geometry" />
        </mxCell>
        <mxCell id="sx4IxrX97aURAVVNlW1D-16" value="models/keras/layers.py&lt;div&gt;CoordConv2D&lt;/div&gt;&lt;div&gt;FillNaNs&lt;/div&gt;" style="rounded=0;whiteSpace=wrap;html=1;" vertex="1" parent="1">
          <mxGeometry x="520" y="380" width="170" height="60" as="geometry" />
        </mxCell>
      </root>
    </mxGraphModel>
  </diagram>
</mxfile>
